<svg width="12" height="19" viewBox="0 0 12 19" fill="none" xmlns="http://www.w3.org/2000/svg">
<path d="M2.63467 9.5L11.6802 18.2055C11.885 18.4026 12 18.67 12 18.9488C12 19.2276 11.885 19.495 11.6802 19.6921C11.4754 19.8892 11.1976 20 10.908 20C10.6184 20 10.3407 19.8892 10.1359 19.6921L0.320407 10.2433C0.218842 10.1458 0.138262 10.0299 0.0832816 9.90238C0.0283009 9.77483 0 9.63809 0 9.5C0 9.36191 0.0283009 9.22517 0.0832816 9.09762C0.138262 8.97007 0.218842 8.85422 0.320407 8.75669L10.1359 -0.692113C10.3407 -0.88925 10.6184 -1 10.908 -1C11.1976 -1 11.4754 -0.88925 11.6802 -0.692113C11.885 -0.494976 12 -0.2276 12 0.0511935C12 0.329987 11.885 0.597363 11.6802 0.7945L2.63467 9.5Z" fill="black"/>
</svg>
