<?xml version="1.0" standalone="no"?>
<!DOCTYPE svg PUBLIC "-//W3C//DTD SVG 20010904//EN"
 "http://www.w3.org/TR/2001/REC-SVG-20010904/DTD/svg10.dtd">
<svg version="1.0" xmlns="http://www.w3.org/2000/svg"
 width="266.000000pt" height="246.000000pt" viewBox="0 0 266.000000 246.000000"
 preserveAspectRatio="xMidYMid meet">

<g transform="translate(0.000000,246.000000) scale(0.100000,-0.100000)"
fill="#000000" stroke="none">
<path d="M830 1986 c-478 -259 -485 -263 -490 -297 -8 -48 -7 -62 5 -66 6 -2
228 114 494 257 266 143 485 260 487 260 2 0 178 -94 392 -209 571 -307 581
-313 592 -306 6 3 10 26 10 49 l0 43 -495 267 c-272 146 -498 266 -502 265 -5
-1 -226 -119 -493 -263z"/>
<path d="M1243 2020 c-43 -26 -63 -68 -63 -131 0 -46 4 -55 38 -89 50 -50 97
-60 161 -34 79 33 111 119 73 194 -37 74 -138 104 -209 60z m93 -15 c4 -8 15
-15 26 -15 13 0 18 -6 16 -17 -2 -14 -11 -17 -35 -15 -47 5 -50 -16 -3 -34 27
-11 42 -24 46 -40 7 -26 -10 -54 -31 -54 -7 0 -15 -7 -19 -15 -6 -16 -36 -21
-36 -6 0 5 -12 12 -26 15 -33 9 -25 31 12 32 68 2 74 16 14 40 -55 22 -60 47
-18 89 37 38 46 41 54 20z"/>
<path d="M828 1598 l-3 -103 -275 -5 c-251 -5 -275 -6 -278 -22 -3 -17 10 -18
176 -18 151 0 181 -2 186 -15 7 -20 -2 -42 -20 -49 -12 -5 -14 -76 -14 -461 0
-442 1 -456 20 -475 11 -11 20 -27 20 -35 0 -13 -24 -15 -160 -15 l-160 0 0
-35 0 -35 1010 0 1010 0 0 35 0 35 -165 0 c-158 0 -165 1 -165 20 0 11 9 25
20 32 20 13 20 24 20 468 0 449 0 455 -21 468 -13 8 -19 21 -17 35 3 22 6 22
186 25 174 2 182 3 182 22 0 19 -8 20 -255 20 l-255 0 0 105 0 105 -520 0
-519 0 -3 -102z m1020 -75 l-3 -158 -495 0 -495 0 -3 158 -3 157 501 0 501 0
-3 -157z m-1020 -125 c3 -47 4 -48 38 -48 l34 0 0 -444 c0 -436 0 -445 20
-451 13 -4 20 -15 20 -31 l0 -24 -124 0 -123 0 5 26 c2 14 11 28 18 31 21 8
21 918 0 930 -12 7 -20 33 -17 56 0 4 29 7 64 5 l62 -3 3 -47z m1130 30 c2 -9
-6 -26 -17 -37 -21 -21 -21 -30 -21 -471 0 -437 1 -451 20 -470 11 -11 20 -27
20 -35 0 -13 -21 -15 -125 -15 l-125 0 0 25 c0 13 7 28 15 32 13 7 15 71 17
448 l3 440 63 3 62 3 0 50 0 50 42 -3 c31 -2 44 -8 46 -20z"/>
<path d="M1052 1533 l3 -98 38 -3 c26 -2 45 2 58 14 23 21 25 69 3 78 -13 5
-14 9 -4 20 6 8 10 30 8 48 -3 32 -4 33 -56 36 l-53 3 3 -98z m68 42 c0 -14
-4 -25 -10 -25 -5 0 -10 11 -10 25 0 14 5 25 10 25 6 0 10 -11 10 -25z m0 -86
c0 -10 -4 -19 -10 -19 -5 0 -10 12 -10 26 0 14 4 23 10 19 6 -3 10 -15 10 -26z"/>
<path d="M1221 1548 c-7 -46 -14 -91 -17 -100 -4 -14 1 -18 20 -18 19 0 26 5
26 20 0 11 6 20 14 20 7 0 16 -9 19 -20 3 -12 14 -20 26 -20 24 0 24 -4 11 80
-19 123 -18 120 -55 120 l-33 0 -11 -82z m53 0 c4 -24 3 -38 -4 -38 -5 0 -10
19 -10 42 0 49 5 47 14 -4z"/>
<path d="M1360 1531 c0 -94 1 -101 20 -101 17 0 20 7 20 42 0 46 9 44 25 -5 7
-22 16 -32 30 -32 18 0 20 8 23 98 l3 97 -26 0 c-22 0 -25 -4 -26 -37 l-1 -38
-12 35 c-8 23 -20 36 -34 38 -21 3 -22 0 -22 -97z"/>
<path d="M1502 1533 c3 -93 4 -98 26 -101 19 -3 22 1 23 35 l1 38 16 -37 c12
-28 23 -38 40 -38 27 0 27 6 2 64 -19 46 -19 46 0 91 l19 45 -23 0 c-18 0 -27
-9 -39 -37 l-15 -38 -1 38 c-1 33 -4 37 -26 37 l-26 0 3 -97z"/>
<path d="M167 273 c-4 -3 -7 -28 -7 -55 l0 -48 1168 2 1167 3 0 50 0 50 -1161
3 c-638 1 -1164 -1 -1167 -5z"/>
</g>
</svg>
