<svg width="22" height="22" viewBox="0 0 22 22" fill="none" xmlns="http://www.w3.org/2000/svg">
<g clip-path="url(#clip0_133_192)">
<path d="M11 0L13.75 4.125H12.375V6.875H9.625V4.125H8.25L11 0ZM1.375 20.625V9.625L20.625 9.625V20.625L1.375 20.625ZM0 22L22 22V8.25L0 8.25V22Z" fill="black"/>
<path d="M11 19.25C9.90598 19.25 8.85677 18.8154 8.08318 18.0418C7.3096 17.2682 6.875 16.219 6.875 15.125C6.875 14.031 7.3096 12.9818 8.08318 12.2082C8.85677 11.4346 9.90598 11 11 11H4.125L4.125 12.375H2.75V17.875L4.125 17.875V19.25L11 19.25ZM15.125 15.125C15.125 16.219 14.6904 17.2682 13.9168 18.0418C13.1432 18.8154 12.094 19.25 11 19.25H17.875V17.875H19.25V12.375H17.875V11L11 11C12.094 11 13.1432 11.4346 13.9168 12.2082C14.6904 12.9818 15.125 14.031 15.125 15.125Z" fill="black"/>
</g>
<defs>
<clipPath id="clip0_133_192">
<rect width="22" height="22" fill="white" transform="matrix(-1 0 0 -1 22 22)"/>
</clipPath>
</defs>
</svg>
