<svg width="20" height="20" viewBox="0 0 20 20" fill="none" xmlns="http://www.w3.org/2000/svg">
<path fill-rule="evenodd" clip-rule="evenodd" d="M9.95405 0H10.046C10.8404 0 11.5023 4.15846e-08 12.0273 0.0744186C12.5822 0.152558 13.0833 0.325581 13.4854 0.748837C13.8884 1.17302 14.0527 1.70047 14.127 2.28372C14.18 2.69302 14.1933 3.18047 14.1968 3.74419C14.7694 3.76372 15.2802 3.8 15.7345 3.86326C16.7702 4.01023 17.6088 4.31907 18.2707 5.01488C18.9318 5.71163 19.2252 6.59442 19.3648 7.68465C19.5 8.74512 19.5 10.0986 19.5 11.8084V11.9126C19.5 13.6223 19.5 14.9767 19.3648 16.0363C19.2252 17.1265 18.9318 18.0093 18.2707 18.706C17.6088 19.4019 16.7702 19.7107 15.7345 19.8577C14.727 20 13.4412 20 11.8169 20H8.18307C6.55879 20 5.27209 20 4.26554 19.8577C3.22981 19.7107 2.39116 19.4019 1.72926 18.706C1.06823 18.0093 0.774837 17.1265 0.635209 16.0363C0.5 14.9758 0.5 13.6223 0.5 11.9126V11.8084C0.5 10.0986 0.5 8.74419 0.635209 7.68465C0.774837 6.59442 1.06823 5.71163 1.72926 5.01488C2.39116 4.31907 3.22981 4.01023 4.26554 3.86326C4.7759 3.79674 5.28909 3.757 5.80321 3.74419C5.80674 3.18047 5.82088 2.69302 5.87302 2.28372C5.94726 1.70047 6.11163 1.17302 6.51372 0.748837C6.9167 0.325581 7.41777 0.153488 7.97186 0.0744186C8.49767 4.15846e-08 9.16047 0 9.95405 0ZM7.12967 3.72279C7.46372 3.72093 7.81456 3.72093 8.18307 3.72093H11.8169C12.1854 3.72093 12.5363 3.72093 12.8703 3.72279C12.8668 3.19256 12.8544 2.79256 12.8138 2.46977C12.7581 2.04093 12.6635 1.85674 12.5487 1.73581C12.4338 1.61488 12.2588 1.51535 11.8505 1.45674C11.4246 1.39721 10.8519 1.39535 10 1.39535C9.14809 1.39535 8.57544 1.39721 8.1486 1.45767C7.74121 1.51535 7.56623 1.61488 7.45135 1.73674C7.33647 1.85767 7.24191 2.04093 7.18623 2.46977C7.14558 2.79163 7.13321 3.19163 7.12967 3.72279ZM4.4414 5.24651C3.55237 5.37209 3.03981 5.60837 2.66512 6.00186C2.29219 6.39535 2.06772 6.93488 1.94842 7.8707C1.82647 8.82605 1.8247 10.0865 1.8247 11.8605C1.8247 13.6344 1.82647 14.8949 1.94842 15.8512C2.06772 16.786 2.29219 17.3256 2.666 17.7191C3.03981 18.1126 3.55237 18.3488 4.4414 18.4744C5.34986 18.6028 6.54642 18.6047 8.23167 18.6047H11.7666C13.4518 18.6047 14.6493 18.6028 15.5577 18.4744C16.4459 18.3488 16.9584 18.1126 17.3322 17.7191C17.706 17.3256 17.9305 16.786 18.0498 15.8502C18.1718 14.8949 18.1735 13.6344 18.1735 11.8605C18.1735 10.0865 18.1718 8.82698 18.0498 7.86977C17.9305 6.93488 17.706 6.39535 17.3322 6.00186C16.9584 5.60837 16.4459 5.37209 15.5568 5.24651C14.6493 5.11814 13.4518 5.11628 11.7666 5.11628H8.23167C6.54642 5.11628 5.35074 5.11814 4.4414 5.24651ZM10 7.44186C10.1758 7.44186 10.3444 7.51537 10.4687 7.6462C10.593 7.77704 10.6628 7.9545 10.6628 8.13953V8.14884C11.6252 8.40372 12.4302 9.20279 12.4302 10.3098C12.4302 10.4948 12.3604 10.6723 12.2361 10.8031C12.1118 10.9339 11.9432 11.0074 11.7674 11.0074C11.5917 11.0074 11.4231 10.9339 11.2988 10.8031C11.1745 10.6723 11.1047 10.4948 11.1047 10.3098C11.1047 9.95256 10.7282 9.45767 10 9.45767C9.27181 9.45767 8.89535 9.95256 8.89535 10.3098C8.89535 10.667 9.27181 11.1628 10 11.1628C11.224 11.1628 12.4302 12.0558 12.4302 13.4112C12.4302 14.5181 11.6252 15.3163 10.6628 15.5721V15.5814C10.6628 15.7664 10.593 15.9439 10.4687 16.0747C10.3444 16.2056 10.1758 16.2791 10 16.2791C9.82422 16.2791 9.65563 16.2056 9.53134 16.0747C9.40704 15.9439 9.33721 15.7664 9.33721 15.5814V15.5721C8.37484 15.3172 7.56977 14.5181 7.56977 13.4112C7.56977 13.2261 7.6396 13.0487 7.76389 12.9178C7.88819 12.787 8.05678 12.7135 8.23256 12.7135C8.40834 12.7135 8.57692 12.787 8.70122 12.9178C8.82552 13.0487 8.89535 13.2261 8.89535 13.4112C8.89535 13.7684 9.27181 14.2633 10 14.2633C10.7282 14.2633 11.1047 13.7684 11.1047 13.4112C11.1047 13.054 10.7282 12.5581 10 12.5581C8.77605 12.5581 7.56977 11.6651 7.56977 10.3098C7.56977 9.20279 8.37484 8.40372 9.33721 8.14884V8.13953C9.33721 7.9545 9.40704 7.77704 9.53134 7.6462C9.65563 7.51537 9.82422 7.44186 10 7.44186Z" fill="black" fill-opacity="0.8"/>
</svg>
