<svg width="19" height="22" viewBox="0 0 19 22" fill="none" xmlns="http://www.w3.org/2000/svg">
<path d="M2.9 1.29412H12.5C12.8183 1.29412 13.1235 1.43046 13.3485 1.67316C13.5736 1.91585 13.7 2.24501 13.7 2.58824V9.08729C14.106 9.12696 14.5077 9.20711 14.9 9.32671V2.58824C14.9 1.90179 14.6471 1.24346 14.1971 0.758076C13.747 0.272688 13.1365 0 12.5 0H2.9C2.26348 0 1.65303 0.272688 1.20294 0.758076C0.752856 1.24346 0.5 1.90179 0.5 2.58824V18.1176C0.5 18.8041 0.752856 19.4624 1.20294 19.9478C1.65303 20.4332 2.26348 20.7059 2.9 20.7059H8.0084C7.70277 20.3067 7.4384 19.8728 7.22 19.4118H2.9C2.58174 19.4118 2.27652 19.2754 2.05147 19.0327C1.82643 18.79 1.7 18.4609 1.7 18.1176H6.7484C6.63736 17.6946 6.56304 17.2614 6.5264 16.8235H1.7V2.58824C1.7 2.24501 1.82643 1.91585 2.05147 1.67316C2.27652 1.43046 2.58174 1.29412 2.9 1.29412ZM4.1 2.58824C3.78174 2.58824 3.47652 2.72458 3.25147 2.96727C3.02643 3.20997 2.9 3.53913 2.9 3.88235V5.17647C2.9 5.51969 3.02643 5.84886 3.25147 6.09155C3.47652 6.33424 3.78174 6.47059 4.1 6.47059H11.3C11.6183 6.47059 11.9235 6.33424 12.1485 6.09155C12.3736 5.84886 12.5 5.51969 12.5 5.17647V3.88235C12.5 3.53913 12.3736 3.20997 12.1485 2.96727C11.9235 2.72458 11.6183 2.58824 11.3 2.58824H4.1ZM11.3 3.88235V5.17647H4.1V3.88235H11.3ZM18.5 16.1765C18.5 17.721 17.9311 19.2022 16.9184 20.2943C15.9057 21.3865 14.5322 22 13.1 22C11.6678 22 10.2943 21.3865 9.28162 20.2943C8.26893 19.2022 7.7 17.721 7.7 16.1765C7.7 14.632 8.26893 13.1507 9.28162 12.0586C10.2943 10.9665 11.6678 10.3529 13.1 10.3529C14.5322 10.3529 15.9057 10.9665 16.9184 12.0586C17.9311 13.1507 18.5 14.632 18.5 16.1765ZM12.524 13.6322C12.4462 13.5746 12.3558 13.5399 12.2617 13.5315C12.1676 13.5231 12.0731 13.5413 11.9876 13.5844C11.9178 13.6175 11.8546 13.665 11.8016 13.7241C11.6898 13.8477 11.6273 14.0135 11.6276 14.1861V18.1655C11.6269 18.2513 11.6419 18.3364 11.6717 18.4159C11.7016 18.4954 11.7457 18.5678 11.8016 18.6288C11.8564 18.6876 11.9201 18.7357 11.99 18.7712C12.1118 18.8313 12.2499 18.8406 12.3776 18.7971C12.4329 18.7774 12.4854 18.7495 12.5336 18.7142L15.2888 16.6864C15.3726 16.6268 15.4402 16.5441 15.4844 16.4469C15.53 16.349 15.5534 16.2409 15.5528 16.1314C15.5522 16.0218 15.5275 15.914 15.4808 15.8167C15.4339 15.7209 15.3649 15.6398 15.2804 15.5812L12.524 13.6322Z" fill="black" fill-opacity="0.8"/>
</svg>
