<svg width="20" height="21" viewBox="0 0 20 21" fill="none" xmlns="http://www.w3.org/2000/svg">
<path d="M12.5 16.3333C12.5001 16.7538 12.3413 17.1588 12.0554 17.4671C11.7695 17.7754 11.3776 17.9643 10.9583 17.9958L10.8333 18H9.16666C8.74618 18.0001 8.34119 17.8413 8.03287 17.5554C7.72455 17.2695 7.5357 16.8776 7.50416 16.4583L7.5 16.3333H12.5ZM10 2.16666C11.5125 2.16663 12.9658 2.75407 14.0535 3.80505C15.1412 4.85604 15.7781 6.2884 15.83 7.79999L15.8333 7.99999V11.1367L17.3517 14.1733C17.4179 14.3058 17.4511 14.4524 17.4483 14.6005C17.4455 14.7486 17.4069 14.8939 17.3357 15.0238C17.2645 15.1537 17.1629 15.2645 17.0396 15.3465C16.9162 15.4286 16.7748 15.4795 16.6275 15.495L16.5317 15.5H3.46833C3.32013 15.5 3.17413 15.4641 3.04285 15.3954C2.91156 15.3267 2.79889 15.2271 2.71451 15.1053C2.63013 14.9835 2.57654 14.843 2.55833 14.6959C2.54013 14.5488 2.55786 14.3995 2.61 14.2608L2.64833 14.1733L4.16666 11.1367V7.99999C4.16666 6.45289 4.78124 4.96916 5.87521 3.8752C6.96917 2.78124 8.4529 2.16666 10 2.16666Z" fill="black"/>
</svg>
