<svg width="25" height="6" viewBox="0 0 25 6" fill="none" xmlns="http://www.w3.org/2000/svg">
<path d="M3.125 0C3.53538 -8.3022e-09 3.94174 0.077597 4.32089 0.228361C4.70003 0.379125 5.04453 0.600104 5.33471 0.87868C5.62489 1.15726 5.85508 1.48797 6.01212 1.85195C6.16917 2.21593 6.25 2.60603 6.25 3C6.25 3.39397 6.16917 3.78407 6.01212 4.14805C5.85508 4.51203 5.62489 4.84275 5.33471 5.12132C5.04453 5.3999 4.70003 5.62087 4.32089 5.77164C3.94174 5.9224 3.53538 6 3.125 6C2.2962 6 1.50134 5.68393 0.915291 5.12132C0.32924 4.55871 0 3.79565 0 3C0 2.20435 0.32924 1.44129 0.915291 0.87868C1.50134 0.316071 2.2962 1.67671e-08 3.125 0ZM12.5 0C12.9104 -8.3022e-09 13.3167 0.077597 13.6959 0.228361C14.075 0.379125 14.4195 0.600104 14.7097 0.87868C14.9999 1.15726 15.2301 1.48797 15.3871 1.85195C15.5442 2.21593 15.625 2.60603 15.625 3C15.625 3.39397 15.5442 3.78407 15.3871 4.14805C15.2301 4.51203 14.9999 4.84275 14.7097 5.12132C14.4195 5.3999 14.075 5.62087 13.6959 5.77164C13.3167 5.9224 12.9104 6 12.5 6C11.6712 6 10.8763 5.68393 10.2903 5.12132C9.70424 4.55871 9.375 3.79565 9.375 3C9.375 2.20435 9.70424 1.44129 10.2903 0.87868C10.8763 0.316071 11.6712 1.67671e-08 12.5 0ZM21.875 0C22.2854 -8.3022e-09 22.6917 0.077597 23.0709 0.228361C23.45 0.379125 23.7945 0.600104 24.0847 0.87868C24.3749 1.15726 24.6051 1.48797 24.7621 1.85195C24.9192 2.21593 25 2.60603 25 3C25 3.39397 24.9192 3.78407 24.7621 4.14805C24.6051 4.51203 24.3749 4.84275 24.0847 5.12132C23.7945 5.3999 23.45 5.62087 23.0709 5.77164C22.6917 5.9224 22.2854 6 21.875 6C21.0462 6 20.2513 5.68393 19.6653 5.12132C19.0792 4.55871 18.75 3.79565 18.75 3C18.75 2.20435 19.0792 1.44129 19.6653 0.87868C20.2513 0.316071 21.0462 1.67671e-08 21.875 0Z" fill="black"/>
</svg>
