<svg width="27" height="20" viewBox="0 0 27 20" fill="none" xmlns="http://www.w3.org/2000/svg">
<path d="M22.2907 9.99997C22.2907 10.3031 22.1584 10.5938 21.9229 10.8081C21.6874 11.0224 21.368 11.1428 21.0349 11.1428C20.7018 11.1428 20.3824 11.0224 20.1469 10.8081C19.9114 10.5938 19.7791 10.3031 19.7791 9.99997C19.7791 9.69687 19.9114 9.40618 20.1469 9.19185C20.3824 8.97752 20.7018 8.85712 21.0349 8.85712C21.368 8.85712 21.6874 8.97752 21.9229 9.19185C22.1584 9.40618 22.2907 9.69687 22.2907 9.99997Z" fill="black" fill-opacity="0.7"/>
<path fill-rule="evenodd" clip-rule="evenodd" d="M10.918 0H14.8261C17.1343 0 18.9628 1.36239e-07 20.3932 0.174857C21.865 0.355429 23.0567 0.734857 23.9973 1.58971C25.1577 2.64686 25.5282 4.06171 25.6626 5.89829C26.3872 6.18743 26.9347 6.80114 26.9937 7.57829C27 7.648 27 7.72229 27 7.79086V12.2091C27 12.2777 27 12.352 26.995 12.4206C26.9347 13.1977 26.3872 13.8126 25.6626 14.1029C25.5282 15.9383 25.1577 17.3531 23.9973 18.4103C23.0567 19.2651 21.865 19.6446 20.3932 19.8251C18.9615 20 17.1343 20 14.8261 20H10.918C8.60986 20 6.7814 20 5.35102 19.8251C3.87921 19.6446 2.68744 19.2651 1.74684 18.4103C0.807488 17.5543 0.390558 16.4697 0.19214 15.1303C0 13.8274 0 12.1646 0 10.064V9.936C0 7.83543 0 6.17143 0.19214 4.86971C0.390558 3.53029 0.807488 2.44571 1.74684 1.58971C2.68744 0.734857 3.87921 0.355429 5.35102 0.174857C6.78265 1.36239e-07 8.60986 0 10.918 0ZM23.7575 14.2857H21.3237C18.63 14.2857 16.3243 12.4251 16.3243 10C16.3243 7.57486 18.63 5.71429 21.3225 5.71429H23.7562C23.6131 4.18171 23.2903 3.37143 22.6637 2.80229C22.1325 2.31886 21.4041 2.02857 20.1407 1.87429C18.851 1.71657 17.1494 1.71429 14.7546 1.71429H10.9871C8.59228 1.71429 6.89191 1.71657 5.59967 1.87429C4.33758 2.02857 3.60921 2.31886 3.078 2.80229C2.54679 3.28571 2.22781 3.94857 2.05828 5.09829C1.88498 6.27314 1.88247 7.82057 1.88247 10C1.88247 12.1794 1.88498 13.7269 2.05828 14.9029C2.22781 16.0514 2.54679 16.7143 3.078 17.1977C3.60921 17.6811 4.33758 17.9714 5.60093 18.1257C6.89191 18.2834 8.59228 18.2857 10.9871 18.2857H14.7546C17.1494 18.2857 18.851 18.2834 20.142 18.1257C21.4041 17.9714 22.1325 17.6811 22.6637 17.1977C23.2903 16.6286 23.6143 15.8194 23.7575 14.2857ZM5.02326 5.42857C5.02326 5.20124 5.12249 4.98323 5.29912 4.82248C5.47575 4.66173 5.71532 4.57143 5.96512 4.57143H10.9884C11.2382 4.57143 11.4777 4.66173 11.6544 4.82248C11.831 4.98323 11.9302 5.20124 11.9302 5.42857C11.9302 5.6559 11.831 5.87392 11.6544 6.03466C11.4777 6.19541 11.2382 6.28571 10.9884 6.28571H5.96512C5.71532 6.28571 5.47575 6.19541 5.29912 6.03466C5.12249 5.87392 5.02326 5.6559 5.02326 5.42857ZM24.7069 7.42857H21.3237C19.5354 7.42857 18.208 8.63886 18.208 10C18.208 11.3611 19.5354 12.5714 21.3225 12.5714H24.7358C24.9945 12.5566 25.1062 12.3977 25.115 12.3017V7.69829C25.1062 7.60229 24.9945 7.44343 24.7358 7.42972H24.7056L24.7069 7.42857Z" fill="black" fill-opacity="0.7"/>
</svg>
