<svg width="25" height="25" viewBox="0 0 25 25" fill="none" xmlns="http://www.w3.org/2000/svg">
<path d="M1.47311 7.69885C0.523748 8.0167 0.431701 9.31687 1.32035 9.84365L7.81768 13.6881C7.98088 13.7848 8.16689 13.8326 8.3526 13.8256C8.53832 13.8185 8.71556 13.7569 8.8623 13.6484L16.3347 8.11453C16.5503 7.95382 16.8345 8.238 16.6745 8.45432L11.1405 15.9254C11.0321 16.0721 10.9705 16.2494 10.9634 16.4351C10.9563 16.6208 11.0041 16.8068 11.1009 16.97L14.9474 23.4707C15.4735 24.3587 16.7737 24.2666 17.0922 23.318L24.2015 2.13814C24.5157 1.20348 23.5876 0.275419 22.6523 0.588857L1.47311 7.69885Z" fill="black"/>
</svg>
