<?xml version="1.0" standalone="no"?>
<!DOCTYPE svg PUBLIC "-//W3C//DTD SVG 20010904//EN"
 "http://www.w3.org/TR/2001/REC-SVG-20010904/DTD/svg10.dtd">
<svg version="1.0" xmlns="http://www.w3.org/2000/svg"
 width="135.000000pt" height="153.000000pt" viewBox="0 0 135.000000 153.000000"
 preserveAspectRatio="xMidYMid meet">

<g transform="translate(0.000000,153.000000) scale(0.100000,-0.100000)"
fill="#000000" stroke="none">
<path d="M0 765 l0 -765 656 0 c432 0 662 4 675 10 19 10 19 29 19 765 l0 755
-675 0 -675 0 0 -765z m530 575 c128 -9 280 -39 328 -64 40 -22 114 -97 137
-139 l20 -38 -95 -94 c-52 -52 -100 -94 -107 -95 -6 0 -71 63 -144 140 -73 76
-138 141 -144 144 -12 4 -63 -42 -267 -240 -70 -68 -130 -124 -133 -124 -3 0
-5 99 -5 219 l0 219 28 30 c29 31 54 37 187 45 28 2 55 4 60 5 6 1 66 -3 135
-8z m750 -127 c-11 -38 -25 -87 -32 -111 l-13 -43 -22 20 c-12 12 -28 21 -35
21 -7 0 -36 -23 -65 -52 -58 -58 -68 -57 -79 8 -6 39 -4 42 35 73 47 37 49 46
20 77 l-22 23 29 7 c16 4 61 15 99 25 111 28 107 30 85 -48z m-660 -276 c41
-43 98 -103 125 -133 28 -30 56 -54 62 -54 6 0 60 46 118 103 59 56 112 104
117 106 7 2 8 -19 3 -60 -8 -73 -49 -167 -95 -221 -36 -42 -113 -94 -162 -109
-18 -6 -127 -14 -243 -17 l-210 -7 -105 -192 -105 -192 -3 252 -2 251 62 60
c35 32 123 117 197 187 114 109 136 126 150 116 9 -7 50 -47 91 -90z"/>
</g>
</svg>
