<svg width="22" height="22" viewBox="0 0 22 22" fill="none" xmlns="http://www.w3.org/2000/svg">
<g clip-path="url(#clip0_133_187)">
<path d="M11 22L8.25 17.875H9.625V15.125H12.375V17.875H13.75L11 22ZM20.625 1.375V12.375H1.375V1.375H20.625ZM22 0H0V13.75H22V0Z" fill="black"/>
<path d="M11 2.75C12.094 2.75 13.1432 3.1846 13.9168 3.95818C14.6904 4.73177 15.125 5.78098 15.125 6.875C15.125 7.96902 14.6904 9.01823 13.9168 9.79182C13.1432 10.5654 12.094 11 11 11H17.875V9.625H19.25V4.125H17.875V2.75H11ZM6.875 6.875C6.875 5.78098 7.3096 4.73177 8.08318 3.95818C8.85677 3.1846 9.90598 2.75 11 2.75H4.125V4.125H2.75V9.625H4.125V11H11C9.90598 11 8.85677 10.5654 8.08318 9.79182C7.3096 9.01823 6.875 7.96902 6.875 6.875Z" fill="black"/>
</g>
<defs>
<clipPath id="clip0_133_187">
<rect width="22" height="22" fill="white"/>
</clipPath>
</defs>
</svg>
